<?xml version="1.0" standalone="no"?>
<!DOCTYPE svg PUBLIC "-//W3C//DTD SVG 20010904//EN"
 "http://www.w3.org/TR/2001/REC-SVG-20010904/DTD/svg10.dtd">
<svg version="1.0" xmlns="http://www.w3.org/2000/svg"
 width="300.000000pt" height="300.000000pt" viewBox="0 0 300.000000 300.000000"
 preserveAspectRatio="xMidYMid meet">
<metadata>
Created by potrace 1.14, written by Peter Selinger 2001-2017
</metadata>
<g transform="translate(0.000000,300.000000) scale(0.100000,-0.100000)"
fill="#000000" stroke="none">
<path d="M1310 2427 c-3 -3 -34 -7 -70 -11 -36 -3 -74 -8 -85 -10 -11 -2 -40
-7 -65 -11 -85 -13 -245 -56 -345 -92 -213 -78 -400 -194 -528 -328 -43 -44
-147 -186 -148 -200 0 -2 -8 -24 -18 -47 -67 -158 -58 -345 26 -512 42 -84 77
-130 163 -216 57 -57 218 -180 236 -180 3 0 18 -8 32 -18 45 -31 231 -109 337
-141 521 -158 1142 -114 1591 112 226 114 422 298 497 465 69 156 76 340 19
476 -89 211 -260 379 -512 507 -158 79 -358 145 -525 173 -16 2 -43 7 -60 10
-16 3 -48 8 -70 12 -48 7 -469 17 -475 11z"/>
</g>
</svg>
